<?xml version="1.0" standalone="no"?>
<!DOCTYPE svg PUBLIC "-//W3C//DTD SVG 20010904//EN"
 "http://www.w3.org/TR/2001/REC-SVG-20010904/DTD/svg10.dtd">
<svg version="1.0" xmlns="http://www.w3.org/2000/svg"
 width="700.000000pt" height="700.000000pt" viewBox="0 0 700.000000 700.000000"
 preserveAspectRatio="xMidYMid meet">
<metadata>
Created by potrace 1.14, written by Peter Selinger 2001-2017
</metadata>
<g transform="translate(0.000000,700.000000) scale(0.100000,-0.100000)"
fill="#000000" stroke="none">
<path d="M1755 6980 c-906 -140 -1601 -838 -1736 -1745 -18 -124 -19 -199 -19
-1735 0 -1536 1 -1611 19 -1735 136 -911 835 -1610 1746 -1746 124 -18 199
-19 1735 -19 1536 0 1611 1 1735 19 833 124 1502 728 1705 1540 61 244 60 199
60 1949 0 1528 -1 1603 -19 1727 -136 911 -835 1610 -1746 1746 -125 18 -197
19 -1745 18 -1518 -1 -1622 -2 -1735 -19z m1944 -1514 c325 -43 506 -118 678
-280 175 -165 258 -330 299 -601 36 -232 -16 -535 -135 -786 -37 -78 -133
-194 -228 -274 -72 -62 -230 -169 -263 -180 -11 -4 -20 -12 -20 -18 0 -25 615
-1167 685 -1272 141 -213 379 -397 561 -435 l54 -11 0 -50 0 -49 -507 0 c-493
0 -508 1 -550 21 -23 11 -53 33 -66 48 -13 16 -220 376 -461 802 -241 426
-453 789 -470 808 -63 68 -198 98 -260 58 -59 -39 -58 -34 -53 -681 5 -630 10
-693 57 -790 32 -67 116 -117 253 -152 l67 -16 0 -49 0 -49 -685 0 -685 0 0
50 0 49 43 11 c128 32 234 90 273 150 13 20 32 70 41 111 15 67 17 218 20
1569 4 1465 1 1665 -28 1765 -24 83 -113 136 -282 166 -61 11 -67 14 -61 33 3
12 19 34 36 49 l30 28 766 -4 c638 -3 788 -7 891 -21z"/>
</g>
</svg>
